<svg width="1440" height="246" viewBox="0 0 1440 246" fill="none" xmlns="http://www.w3.org/2000/svg">
<g clip-path="url(#clip0_272_1705)">
<path d="M0 -302H1440V46C1440 46 1174.5 246 720 246C265.5 246 0 106 0 106V-302Z" fill="#E8EEFE"/>
<path d="M0 -2H1440V36C1440 36 1174.5 216 720 216C265.5 216 0 66 0 66V-2Z" fill="url(#paint0_linear_272_1705)"/>
<path d="M-18 -442H1460V-94C1460 -94 1187.49 86 721 86C254.506 86 -18 -64 -18 -64V-442Z" fill="url(#paint1_linear_272_1705)"/>
<circle cx="248.181" cy="80.916" r="5" transform="rotate(15.7318 248.181 80.916)" stroke="white" stroke-width="7.22974"/>
<path d="M490.752 138.157C489.458 142.753 484.683 145.429 480.087 144.134C475.491 142.84 472.815 138.065 474.109 133.469C475.404 128.873 480.179 126.197 484.775 127.491C489.371 128.786 492.047 133.561 490.752 138.157Z" stroke="#9599BD" stroke-width="6"/>
<circle cx="210.628" cy="113.628" r="6.11487" transform="rotate(15.7318 210.628 113.628)" stroke="#FF6D6D" stroke-width="5"/>
<circle cx="462.576" cy="185.718" r="5" transform="rotate(15.7318 462.576 185.718)" stroke="#24FF00" stroke-width="3.19725"/>
<circle cx="154.04" cy="80.4865" r="3.5" transform="rotate(15.7318 154.04 80.4865)" stroke="#9599BD" stroke-width="4.73089"/>
<circle cx="61.0962" cy="10.5212" r="4.36544" transform="rotate(15.7318 61.0962 10.5212)" stroke="#9599BD" stroke-width="3"/>
<rect x="71.1871" y="52.2744" width="10.6311" height="10.6311" transform="rotate(48.1903 71.1871 52.2744)" fill="white" fill-opacity="0.63"/>
<rect x="300.482" y="123.672" width="15.9934" height="15.9934" transform="rotate(82.2909 300.482 123.672)" fill="#E8EEFE"/>
<rect x="557.382" y="197.767" width="6.0438" height="6.0438" transform="rotate(19.7985 557.382 197.767)" fill="#9599BD"/>
<rect x="413" y="148.37" width="11.9029" height="10.349" transform="rotate(58.1352 413 148.37)" fill="#FF6D6D"/>
<path d="M112.989 24.3767L116.339 35.3178L104.421 31.9607L112.989 24.3767Z" fill="#D9D9D9"/>
<path d="M350.001 120.142L345.449 130.64L338.561 120.351L350.001 120.142Z" fill="#FF16E8"/>
<path d="M207.789 41.3467C210.247 41.3018 211.929 43.8134 210.951 46.0688C209.887 48.5216 206.531 48.8257 205.043 46.6041C203.556 44.3825 205.116 41.3955 207.789 41.3467Z" fill="white"/>
<path d="M9.83585 12.627C12.2938 12.5821 13.9752 15.0937 12.9971 17.3491C11.9335 19.8019 8.57734 20.106 7.09006 17.8844C5.60279 15.6628 7.16282 12.6758 9.83585 12.627Z" fill="#FFEA31" fill-opacity="0.8"/>
<path d="M529.892 161.699C532.803 161.646 534.793 164.62 533.635 167.29L532.144 170.73C530.884 173.634 526.911 173.994 525.15 171.364L522.893 167.992C521.132 165.362 522.979 161.826 526.144 161.768L529.892 161.699Z" fill="#E8EEFE"/>
<path d="M412.381 103.81C413.488 101.5 416.614 101.107 418.258 103.073C420.045 105.211 418.759 108.479 415.994 108.826C413.229 109.173 411.176 106.323 412.381 103.81Z" fill="#9599BD"/>
<circle cx="8.61487" cy="8.61487" r="5" transform="matrix(-0.962542 0.271134 0.271134 0.962542 1191.77 70.2881)" stroke="white" stroke-width="7.22974"/>
<path d="M941.802 138.564C943.321 143.957 948.925 147.097 954.318 145.578C959.712 144.059 962.852 138.455 961.333 133.062C959.814 127.669 954.21 124.528 948.817 126.048C943.424 127.567 940.283 133.17 941.802 138.564Z" stroke="#FFC700" stroke-width="3"/>
<circle cx="8.61487" cy="8.61487" r="6.11487" transform="matrix(-0.962542 0.271134 0.271134 0.962542 1115.58 62)" stroke="#FF6D6D" stroke-width="5"/>
<circle cx="6.59862" cy="6.59862" r="5" transform="matrix(-0.962542 0.271134 0.271134 0.962542 975.985 177.578)" stroke="#24FF00" stroke-width="3.19725"/>
<circle cx="5.86544" cy="5.86544" r="3.5" transform="matrix(-0.962542 0.271134 0.271134 0.962542 1284.01 73.2505)" stroke="#9599BD" stroke-width="4.73089"/>
<circle cx="5.86544" cy="5.86544" r="4.36544" transform="matrix(-0.962542 0.271134 0.271134 0.962542 1376.96 3.28516)" stroke="#9599BD" stroke-width="3"/>
<rect width="10.6311" height="10.6311" transform="matrix(-0.666658 0.745363 0.745363 0.666658 1362.81 52.2744)" fill="white" fill-opacity="0.63"/>
<rect width="15.9934" height="15.9934" transform="matrix(-0.134144 0.990962 0.990962 0.134144 1133.52 123.672)" fill="#E8EEFE"/>
<rect width="6.0438" height="6.0438" transform="matrix(-0.940889 0.338714 0.338714 0.940889 876.616 197.767)" fill="#9599BD"/>
<rect width="11.9029" height="10.349" transform="matrix(-0.527916 0.849297 0.849297 0.527916 1021 148.37)" fill="#FF6D6D"/>
<path d="M1321.01 24.3767L1317.66 35.3178L1329.58 31.9607L1321.01 24.3767Z" fill="#D9D9D9"/>
<path d="M1084 120.142L1088.55 130.64L1095.44 120.351L1084 120.142Z" fill="#FF16E8"/>
<path d="M1226.21 41.3467C1223.75 41.3018 1222.07 43.8134 1223.05 46.0688C1224.11 48.5216 1227.47 48.8257 1228.95 46.6041C1230.44 44.3825 1228.88 41.3955 1226.21 41.3467Z" fill="white"/>
<path d="M1424.16 12.627C1421.7 12.5821 1420.02 15.0937 1421 17.3491C1422.06 19.8019 1425.42 20.106 1426.91 17.8844C1428.4 15.6628 1426.84 12.6758 1424.16 12.627Z" fill="#FFEA31" fill-opacity="0.8"/>
<path d="M904.106 161.699C901.196 161.646 899.205 164.62 900.363 167.29L901.855 170.73C903.114 173.634 907.088 173.994 908.848 171.364L911.105 167.992C912.866 165.362 911.019 161.826 907.855 161.768L904.106 161.699Z" fill="#E8EEFE"/>
<path d="M1021.62 103.81C1020.51 101.5 1017.38 101.107 1015.74 103.073C1013.95 105.211 1015.24 108.479 1018 108.826C1020.77 109.173 1022.82 106.323 1021.62 103.81Z" fill="#9599BD"/>
</g>
<defs>
<linearGradient id="paint0_linear_272_1705" x1="720" y1="-312" x2="720" y2="216" gradientUnits="userSpaceOnUse">
<stop stop-color="#FF6D6D"/>
<stop offset="1" stop-color="#6D0CB9"/>
</linearGradient>
<linearGradient id="paint1_linear_272_1705" x1="721" y1="-442" x2="721" y2="86" gradientUnits="userSpaceOnUse">
<stop stop-color="#FF6D6D"/>
<stop offset="1" stop-color="#6D0CB9"/>
</linearGradient>
<clipPath id="clip0_272_1705">
<rect width="1440" height="246" fill="white"/>
</clipPath>
</defs>
</svg>
