<svg width="1460" height="411" viewBox="0 0 1460 411" fill="none" xmlns="http://www.w3.org/2000/svg">
<path d="M0 -302H1440V46C1440 46 1174.5 246 720 246C265.5 246 0 106 0 106V-302Z" fill="#E8EEFE"/>
<path d="M0 -2H1440V36C1440 36 1174.5 216 720 216C265.5 216 0 66 0 66V-2Z" fill="url(#paint0_linear_321_1746)"/>
<path d="M-18 -442H1460V-94C1460 -94 1187.49 86 721 86C254.506 86 -18 -64 -18 -64V-442Z" fill="url(#paint1_linear_321_1746)"/>
<circle cx="248.181" cy="80.916" r="5" transform="rotate(15.7318 248.181 80.916)" stroke="white" stroke-width="7.22974"/>
<path d="M490.752 138.157C489.458 142.753 484.683 145.429 480.087 144.134C475.491 142.84 472.815 138.065 474.109 133.469C475.404 128.873 480.179 126.197 484.775 127.491C489.371 128.786 492.047 133.561 490.752 138.157Z" stroke="#9599BD" stroke-width="6"/>
<circle cx="210.628" cy="113.628" r="6.11487" transform="rotate(15.7318 210.628 113.628)" stroke="#FF6D6D" stroke-width="5"/>
<circle cx="462.576" cy="185.718" r="5" transform="rotate(15.7318 462.576 185.718)" stroke="#24FF00" stroke-width="3.19725"/>
<circle cx="154.04" cy="80.4865" r="3.5" transform="rotate(15.7318 154.04 80.4865)" stroke="#9599BD" stroke-width="4.73089"/>
<circle cx="61.0962" cy="10.5212" r="4.36544" transform="rotate(15.7318 61.0962 10.5212)" stroke="#9599BD" stroke-width="3"/>
<rect x="71.1871" y="52.2744" width="10.6311" height="10.6311" transform="rotate(48.1903 71.1871 52.2744)" fill="white" fill-opacity="0.63"/>
<rect x="300.482" y="123.672" width="15.9934" height="15.9934" transform="rotate(82.2909 300.482 123.672)" fill="#E8EEFE"/>
<rect x="557.382" y="197.767" width="6.0438" height="6.0438" transform="rotate(19.7985 557.382 197.767)" fill="#9599BD"/>
<rect x="413" y="148.37" width="11.9029" height="10.349" transform="rotate(58.1352 413 148.37)" fill="#FF6D6D"/>
<path d="M112.989 24.3767L116.339 35.3178L104.421 31.9607L112.989 24.3767Z" fill="#D9D9D9"/>
<path d="M350.001 120.142L345.449 130.64L338.561 120.351L350.001 120.142Z" fill="#FF16E8"/>
<path d="M207.789 41.3467C210.247 41.3018 211.929 43.8134 210.951 46.0688V46.0688C209.887 48.5216 206.531 48.8257 205.043 46.6041V46.6041C203.556 44.3825 205.116 41.3955 207.789 41.3467V41.3467Z" fill="white"/>
<path d="M9.83585 12.627C12.2938 12.5821 13.9752 15.0937 12.9971 17.3491V17.3491C11.9335 19.8019 8.57734 20.106 7.09006 17.8844V17.8844C5.60279 15.6628 7.16282 12.6758 9.83585 12.627V12.627Z" fill="#FFEA31" fill-opacity="0.8"/>
<path d="M529.892 161.699C532.803 161.646 534.793 164.62 533.635 167.29L532.144 170.73C530.884 173.634 526.911 173.994 525.15 171.364L522.893 167.992C521.132 165.362 522.979 161.826 526.144 161.768L529.892 161.699Z" fill="#E8EEFE"/>
<path d="M412.381 103.81C413.488 101.5 416.614 101.107 418.258 103.073V103.073C420.045 105.211 418.759 108.479 415.994 108.826V108.826C413.229 109.173 411.176 106.323 412.381 103.81V103.81Z" fill="#9599BD"/>
<circle cx="8.61487" cy="8.61487" r="5" transform="matrix(-0.962542 0.271134 0.271134 0.962542 1191.77 70.2881)" stroke="white" stroke-width="7.22974"/>
<path d="M941.802 138.564C943.321 143.957 948.925 147.097 954.318 145.578C959.712 144.059 962.852 138.455 961.333 133.062C959.814 127.669 954.21 124.528 948.817 126.048C943.424 127.567 940.283 133.17 941.802 138.564Z" stroke="#FFC700" stroke-width="3"/>
<circle cx="8.61487" cy="8.61487" r="6.11487" transform="matrix(-0.962542 0.271134 0.271134 0.962542 1115.58 62)" stroke="#FF6D6D" stroke-width="5"/>
<circle cx="6.59862" cy="6.59862" r="5" transform="matrix(-0.962542 0.271134 0.271134 0.962542 975.985 177.578)" stroke="#24FF00" stroke-width="3.19725"/>
<circle cx="5.86544" cy="5.86544" r="3.5" transform="matrix(-0.962542 0.271134 0.271134 0.962542 1284.01 73.2505)" stroke="#9599BD" stroke-width="4.73089"/>
<circle cx="5.86544" cy="5.86544" r="4.36544" transform="matrix(-0.962542 0.271134 0.271134 0.962542 1376.96 3.28516)" stroke="#9599BD" stroke-width="3"/>
<rect width="10.6311" height="10.6311" transform="matrix(-0.666658 0.745363 0.745363 0.666658 1362.81 52.2744)" fill="white" fill-opacity="0.63"/>
<rect width="15.9934" height="15.9934" transform="matrix(-0.134144 0.990962 0.990962 0.134144 1133.52 123.672)" fill="#E8EEFE"/>
<rect width="6.0438" height="6.0438" transform="matrix(-0.940889 0.338714 0.338714 0.940889 876.616 197.767)" fill="#9599BD"/>
<rect width="11.9029" height="10.349" transform="matrix(-0.527916 0.849297 0.849297 0.527916 1021 148.37)" fill="#FF6D6D"/>
<path d="M1321.01 24.3767L1317.66 35.3178L1329.58 31.9607L1321.01 24.3767Z" fill="#D9D9D9"/>
<path d="M1084 120.142L1088.55 130.64L1095.44 120.351L1084 120.142Z" fill="#FF16E8"/>
<path d="M1226.21 41.3467C1223.75 41.3018 1222.07 43.8134 1223.05 46.0688V46.0688C1224.11 48.5216 1227.47 48.8257 1228.95 46.6041V46.6041C1230.44 44.3825 1228.88 41.3955 1226.21 41.3467V41.3467Z" fill="white"/>
<path d="M1424.16 12.627C1421.7 12.5821 1420.02 15.0937 1421 17.3491V17.3491C1422.06 19.8019 1425.42 20.106 1426.91 17.8844V17.8844C1428.4 15.6628 1426.84 12.6758 1424.16 12.627V12.627Z" fill="#FFEA31" fill-opacity="0.8"/>
<path d="M904.106 161.699C901.196 161.646 899.205 164.62 900.363 167.29L901.855 170.73C903.114 173.634 907.088 173.994 908.848 171.364L911.105 167.992C912.866 165.362 911.019 161.826 907.855 161.768L904.106 161.699Z" fill="#E8EEFE"/>
<path d="M1021.62 103.81C1020.51 101.5 1017.38 101.107 1015.74 103.073V103.073C1013.95 105.211 1015.24 108.479 1018 108.826V108.826C1020.77 109.173 1022.82 106.323 1021.62 103.81V103.81Z" fill="#9599BD"/>
<g filter="url(#filter0_d_321_1746)">
<path d="M649.751 209.356C649.751 207.983 650.143 206.914 650.928 206.148C651.732 205.383 652.841 205.001 654.253 205.001H659.491C662.414 205.001 664.621 205.57 666.112 206.708C667.603 207.845 668.349 209.542 668.349 211.798C668.349 213.898 667.721 215.536 666.465 216.713C665.229 217.89 663.562 218.478 661.463 218.478L665.936 222.922C666.289 223.275 666.465 223.677 666.465 224.128C666.465 224.599 666.259 225.011 665.847 225.364C665.416 225.698 664.994 225.864 664.582 225.864C664.013 225.864 663.493 225.609 663.022 225.099L656.666 218.596H653.665V224.128C653.665 224.678 653.478 225.109 653.106 225.423C652.733 225.737 652.262 225.894 651.693 225.894C651.105 225.894 650.634 225.737 650.281 225.423C649.928 225.109 649.751 224.678 649.751 224.128V209.356ZM659.374 215.565C660.668 215.565 661.679 215.438 662.404 215.183C663.13 214.927 663.64 214.535 663.935 214.005C664.249 213.456 664.405 212.72 664.405 211.798C664.405 210.464 663.994 209.503 663.17 208.915C662.365 208.326 661.1 208.032 659.374 208.032H654.93C654.538 208.032 654.224 208.159 653.988 208.414C653.773 208.669 653.665 209.023 653.665 209.474V215.565H659.374ZM676.07 225.6C674.579 225.6 673.421 225.207 672.597 224.423C671.773 223.638 671.361 222.539 671.361 221.127V209.356C671.361 207.983 671.754 206.914 672.538 206.148C673.343 205.383 674.451 205.001 675.864 205.001H685.015C685.604 205.001 686.055 205.138 686.369 205.413C686.683 205.668 686.84 206.041 686.84 206.531C686.84 207.002 686.673 207.375 686.339 207.649C686.026 207.904 685.584 208.032 685.015 208.032H676.54C676.148 208.032 675.834 208.159 675.599 208.414C675.383 208.669 675.275 209.023 675.275 209.474V213.564H682.779C683.367 213.564 683.819 213.701 684.132 213.976C684.446 214.231 684.603 214.604 684.603 215.094C684.603 215.565 684.437 215.938 684.103 216.212C683.789 216.467 683.348 216.595 682.779 216.595H675.275V221.127C675.275 221.578 675.383 221.931 675.599 222.186C675.834 222.441 676.148 222.569 676.54 222.569H685.663C686.251 222.569 686.702 222.706 687.016 222.981C687.33 223.236 687.487 223.608 687.487 224.099C687.487 224.57 687.32 224.942 686.987 225.217C686.673 225.472 686.232 225.6 685.663 225.6H676.07ZM697.209 225.894C696.111 225.894 695.228 225.56 694.561 224.893C693.914 224.207 693.453 223.138 693.178 221.686L690.265 206.708C690.226 206.472 690.206 206.305 690.206 206.207C690.206 205.717 690.363 205.344 690.677 205.089C691.01 204.834 691.461 204.707 692.03 204.707C693.207 204.707 693.894 205.226 694.09 206.266L696.886 222.01C696.964 222.323 697.033 222.539 697.092 222.657C697.151 222.755 697.229 222.804 697.327 222.804C697.563 222.804 697.71 222.549 697.769 222.039L699.622 207.944C699.76 206.923 700.133 206.129 700.741 205.56C701.368 204.991 702.163 204.707 703.124 204.707C704.086 204.707 704.87 204.991 705.478 205.56C706.106 206.129 706.489 206.923 706.626 207.944L708.48 222.039C708.539 222.549 708.686 222.804 708.921 222.804C709.019 222.804 709.098 222.755 709.157 222.657C709.216 222.539 709.284 222.323 709.363 222.01L712.158 206.266C712.354 205.226 713.041 204.707 714.218 204.707C714.787 204.707 715.228 204.834 715.542 205.089C715.876 205.344 716.043 205.717 716.043 206.207C716.043 206.305 716.023 206.472 715.984 206.708L713.071 221.686C712.796 223.138 712.325 224.207 711.658 224.893C711.011 225.56 710.138 225.894 709.039 225.894C707.94 225.894 707.087 225.56 706.479 224.893C705.871 224.226 705.469 223.187 705.272 221.774L703.536 208.591C703.497 208.297 703.448 208.091 703.389 207.973C703.33 207.855 703.242 207.796 703.124 207.796C703.007 207.796 702.918 207.855 702.859 207.973C702.801 208.091 702.752 208.297 702.712 208.591L700.976 221.774C700.78 223.187 700.378 224.226 699.77 224.893C699.161 225.56 698.308 225.894 697.209 225.894ZM720.4 225.864C719.812 225.864 719.341 225.708 718.988 225.394C718.634 225.08 718.458 224.648 718.458 224.099V213.799C718.458 210.955 719.272 208.728 720.9 207.12C722.529 205.511 724.794 204.707 727.698 204.707C729.601 204.707 731.249 205.07 732.642 205.795C734.035 206.521 735.094 207.571 735.82 208.944C736.565 210.317 736.938 211.936 736.938 213.799V224.099C736.938 224.648 736.761 225.08 736.408 225.394C736.055 225.708 735.584 225.864 734.996 225.864C734.407 225.864 733.927 225.708 733.554 225.394C733.201 225.06 733.024 224.629 733.024 224.099V219.302H722.372V224.099C722.372 224.629 722.185 225.06 721.813 225.394C721.459 225.708 720.989 225.864 720.4 225.864ZM733.024 216.271V213.711C733.024 211.749 732.573 210.278 731.671 209.297C730.788 208.297 729.464 207.796 727.698 207.796C724.147 207.796 722.372 209.768 722.372 213.711V216.271H733.024ZM740.1 209.356C740.1 207.983 740.493 206.914 741.277 206.148C742.082 205.383 743.19 205.001 744.603 205.001H749.841C752.764 205.001 754.971 205.57 756.462 206.708C757.953 207.845 758.698 209.542 758.698 211.798C758.698 213.898 758.07 215.536 756.815 216.713C755.579 217.89 753.911 218.478 751.812 218.478L756.285 222.922C756.638 223.275 756.815 223.677 756.815 224.128C756.815 224.599 756.609 225.011 756.197 225.364C755.765 225.698 755.343 225.864 754.932 225.864C754.363 225.864 753.843 225.609 753.372 225.099L747.016 218.596H744.014V224.128C744.014 224.678 743.828 225.109 743.455 225.423C743.082 225.737 742.612 225.894 742.043 225.894C741.454 225.894 740.983 225.737 740.63 225.423C740.277 225.109 740.1 224.678 740.1 224.128V209.356ZM749.723 215.565C751.018 215.565 752.028 215.438 752.754 215.183C753.48 214.927 753.99 214.535 754.284 214.005C754.598 213.456 754.755 212.72 754.755 211.798C754.755 210.464 754.343 209.503 753.519 208.915C752.715 208.326 751.449 208.032 749.723 208.032H745.28C744.887 208.032 744.573 208.159 744.338 208.414C744.122 208.669 744.014 209.023 744.014 209.474V215.565H749.723ZM766.419 225.6C764.928 225.6 763.771 225.207 762.947 224.423C762.123 223.638 761.711 222.539 761.711 221.127V209.356C761.711 207.983 762.103 206.914 762.888 206.148C763.692 205.383 764.801 205.001 766.213 205.001H770.333C772.589 205.001 774.541 205.413 776.189 206.237C777.837 207.061 779.092 208.248 779.955 209.797C780.838 211.347 781.28 213.191 781.28 215.33C781.28 217.468 780.838 219.312 779.955 220.862C779.092 222.392 777.837 223.569 776.189 224.393C774.56 225.197 772.608 225.6 770.333 225.6H766.419ZM770.039 222.569C772.491 222.569 774.315 221.98 775.512 220.803C776.709 219.606 777.307 217.782 777.307 215.33C777.307 212.877 776.699 211.053 775.482 209.856C774.286 208.64 772.471 208.032 770.039 208.032H766.89C766.497 208.032 766.184 208.159 765.948 208.414C765.732 208.669 765.624 209.023 765.624 209.474V221.127C765.624 221.578 765.732 221.931 765.948 222.186C766.184 222.441 766.497 222.569 766.89 222.569H770.039Z" fill="black"/>
<path d="M829.635 193.609L740.239 180.646L700.261 235.564L829.635 193.609Z" fill="url(#paint2_linear_321_1746)"/>
<path d="M829.635 193.61L700.26 235.564L764.948 256.54L829.635 193.61Z" fill="url(#paint3_linear_321_1746)"/>
<path d="M700.261 235.564V99.8037L660.282 180.647L700.261 235.564Z" fill="url(#paint4_linear_321_1746)"/>
<path d="M700.3 99.8037L700.261 99.8784V235.564L700.28 235.587L740.278 180.647L700.3 99.8037Z" fill="url(#paint5_linear_321_1746)"/>
<path d="M779.819 345.153L764.549 256.301L699.862 235.325L779.819 345.153Z" fill="url(#paint6_linear_321_1746)"/>
<path d="M570.935 193.642L660.331 180.679L700.31 235.593L570.935 193.642Z" fill="url(#paint7_linear_321_1746)"/>
<path d="M570.935 193.643L700.31 235.594L635.623 256.569L570.935 193.643Z" fill="url(#paint8_linear_321_1746)"/>
<path d="M620.352 345.427L635.623 256.568L700.31 235.593L620.352 345.427Z" fill="url(#paint9_linear_321_1746)"/>
<path d="M700.261 235.564V303.441L780.218 345.393L700.261 235.564Z" fill="url(#paint10_linear_321_1746)"/>
<path d="M620.324 345.265L620.302 345.391L620.337 345.375L620.324 345.265Z" fill="url(#paint11_linear_321_1746)"/>
<path d="M620.361 345.362L700.259 303.44V235.615L620.361 345.362Z" fill="url(#paint12_linear_321_1746)"/>
<path style="mix-blend-mode:color-dodge" d="M702.614 173.287C702.614 206.628 701.66 233.657 700.482 233.657C699.304 233.657 698.35 206.631 698.35 173.287C698.35 139.943 699.304 112.916 700.482 112.916C701.66 112.916 702.614 139.943 702.614 173.287Z" fill="url(#paint13_radial_321_1746)"/>
<path style="mix-blend-mode:color-dodge" d="M763.652 217.622C731.924 228.068 705.907 235.629 705.54 234.512C705.169 233.398 730.59 224.024 762.318 213.582C794.046 203.139 820.063 195.578 820.434 196.692C820.802 197.806 795.384 207.176 763.656 217.622H763.652Z" fill="url(#paint14_radial_321_1746)"/>
<path style="mix-blend-mode:color-dodge" d="M736.412 288.358C716.605 261.506 701.318 239.179 702.265 238.481C703.212 237.783 720.038 258.986 739.845 285.837C759.652 312.688 774.939 335.018 773.992 335.717C773.045 336.412 756.222 315.212 736.412 288.361V288.358Z" fill="url(#paint15_radial_321_1746)"/>
<path style="mix-blend-mode:color-dodge" d="M665.281 288.358C685.088 261.506 700.374 239.179 699.427 238.481C698.48 237.783 681.654 258.986 661.847 285.837C642.04 312.688 626.754 335.018 627.701 335.717C628.648 336.412 645.471 315.212 665.281 288.361V288.358Z" fill="url(#paint16_radial_321_1746)"/>
<path style="mix-blend-mode:color-dodge" d="M637.348 217.632C669.235 227.581 695.366 234.736 695.717 233.615C696.069 232.495 670.505 223.521 638.617 213.572C606.729 203.623 580.595 196.468 580.244 197.592C579.892 198.712 605.456 207.687 637.344 217.635L637.348 217.632Z" fill="url(#paint17_radial_321_1746)"/>
</g>
<defs>
<filter id="filter0_d_321_1746" x="492.573" y="17.3439" width="415.518" height="434.525" filterUnits="userSpaceOnUse" color-interpolation-filters="sRGB">
<feFlood flood-opacity="0" result="BackgroundImageFix"/>
<feColorMatrix in="SourceAlpha" type="matrix" values="0 0 0 0 0 0 0 0 0 0 0 0 0 0 0 0 0 0 127 0" result="hardAlpha"/>
<feOffset dy="11.7707"/>
<feGaussianBlur stdDeviation="14.7134"/>
<feComposite in2="hardAlpha" operator="out"/>
<feColorMatrix type="matrix" values="0 0 0 0 0.584063 0 0 0 0 0.599823 0 0 0 0 0.741667 0 0 0 0.7 0"/>
<feBlend mode="normal" in2="BackgroundImageFix" result="effect1_dropShadow_321_1746"/>
<feBlend mode="normal" in="SourceGraphic" in2="effect1_dropShadow_321_1746" result="shape"/>
</filter>
<linearGradient id="paint0_linear_321_1746" x1="720" y1="-312" x2="720" y2="216" gradientUnits="userSpaceOnUse">
<stop stop-color="#FF6D6D"/>
<stop offset="1" stop-color="#6D0CB9"/>
</linearGradient>
<linearGradient id="paint1_linear_321_1746" x1="721" y1="-442" x2="721" y2="86" gradientUnits="userSpaceOnUse">
<stop stop-color="#FF6D6D"/>
<stop offset="1" stop-color="#6D0CB9"/>
</linearGradient>
<linearGradient id="paint2_linear_321_1746" x1="750.257" y1="176.772" x2="764.848" y2="214.481" gradientUnits="userSpaceOnUse">
<stop stop-color="#FFDA19"/>
<stop offset="1" stop-color="#FEE227"/>
</linearGradient>
<linearGradient id="paint3_linear_321_1746" x1="777.647" y1="252.279" x2="765.068" y2="214.791" gradientUnits="userSpaceOnUse">
<stop stop-color="#FFDA1A"/>
<stop offset="0.9" stop-color="#D79E13"/>
<stop offset="1" stop-color="#FEE227"/>
</linearGradient>
<linearGradient id="paint4_linear_321_1746" x1="660.282" y1="167.684" x2="700.261" y2="167.684" gradientUnits="userSpaceOnUse">
<stop stop-color="#FFDD29"/>
<stop offset="1" stop-color="#FEE227"/>
</linearGradient>
<linearGradient id="paint5_linear_321_1746" x1="740.278" y1="167.697" x2="700.095" y2="167.697" gradientUnits="userSpaceOnUse">
<stop stop-color="#FFDB1E"/>
<stop offset="0.92" stop-color="#E1AE18"/>
<stop offset="1" stop-color="#FEE227"/>
</linearGradient>
<linearGradient id="paint6_linear_321_1746" x1="772.35" y1="267.315" x2="739.663" y2="290.457" gradientUnits="userSpaceOnUse">
<stop stop-color="#E2B018"/>
<stop offset="0.93" stop-color="#F9D924"/>
<stop offset="1" stop-color="#FEE227"/>
</linearGradient>
<linearGradient id="paint7_linear_321_1746" x1="648.82" y1="176.691" x2="636.007" y2="213.666" gradientUnits="userSpaceOnUse">
<stop stop-color="#E8AE27"/>
<stop offset="1" stop-color="#FEE227"/>
</linearGradient>
<linearGradient id="paint8_linear_321_1746" x1="623.496" y1="252.727" x2="635.617" y2="214.481" gradientUnits="userSpaceOnUse">
<stop stop-color="#FFD90F"/>
<stop offset="1" stop-color="#FEE227"/>
</linearGradient>
<linearGradient id="paint9_linear_321_1746" x1="627.922" y1="267.258" x2="660.514" y2="290.734" gradientUnits="userSpaceOnUse">
<stop stop-color="#EFC81F"/>
<stop offset="1" stop-color="#F5D323"/>
</linearGradient>
<linearGradient id="paint10_linear_321_1746" x1="707.154" y1="313.367" x2="739.439" y2="290.944" gradientUnits="userSpaceOnUse">
<stop stop-color="#B56101"/>
<stop offset="0.91" stop-color="#DFAB17"/>
<stop offset="1" stop-color="#F2CD21"/>
</linearGradient>
<linearGradient id="paint11_linear_321_1746" x1="652.835" y1="368.891" x2="620.385" y2="345.273" gradientUnits="userSpaceOnUse">
<stop stop-color="#B56101"/>
<stop offset="0.9" stop-color="#D79E13"/>
<stop offset="1" stop-color="#FEE227"/>
</linearGradient>
<linearGradient id="paint12_linear_321_1746" x1="692.637" y1="313.915" x2="660.342" y2="290.416" gradientUnits="userSpaceOnUse">
<stop stop-color="#FEE127"/>
<stop offset="0.9" stop-color="#FBDD25"/>
<stop offset="1" stop-color="#FEE227"/>
</linearGradient>
<radialGradient id="paint13_radial_321_1746" cx="0" cy="0" r="1" gradientUnits="userSpaceOnUse" gradientTransform="translate(700.482 173.071) scale(2.13191 60.3338)">
<stop stop-color="white"/>
<stop offset="0.5" stop-color="#797979"/>
<stop offset="0.84" stop-color="#222222"/>
<stop offset="1"/>
</radialGradient>
<radialGradient id="paint14_radial_321_1746" cx="0" cy="0" r="1" gradientUnits="userSpaceOnUse" gradientTransform="translate(763.182 215.619) rotate(71.6958) scale(2.1276 60.4301)">
<stop stop-color="white"/>
<stop offset="0.5" stop-color="#797979"/>
<stop offset="0.84" stop-color="#222222"/>
<stop offset="1"/>
</radialGradient>
<radialGradient id="paint15_radial_321_1746" cx="0" cy="0" r="1" gradientUnits="userSpaceOnUse" gradientTransform="translate(738.183 287.287) rotate(143.685) scale(2.13041 60.3763)">
<stop stop-color="white"/>
<stop offset="0.5" stop-color="#797979"/>
<stop offset="0.84" stop-color="#222222"/>
<stop offset="1"/>
</radialGradient>
<radialGradient id="paint16_radial_321_1746" cx="0" cy="0" r="1" gradientUnits="userSpaceOnUse" gradientTransform="translate(663.525 287.313) rotate(36.3152) scale(2.13041 60.3763)">
<stop stop-color="white"/>
<stop offset="0.5" stop-color="#797979"/>
<stop offset="0.84" stop-color="#222222"/>
<stop offset="1"/>
</radialGradient>
<radialGradient id="paint17_radial_321_1746" cx="0" cy="0" r="1" gradientUnits="userSpaceOnUse" gradientTransform="translate(637.759 215.617) rotate(107.403) scale(2.12802 60.4441)">
<stop stop-color="white"/>
<stop offset="0.5" stop-color="#797979"/>
<stop offset="0.84" stop-color="#222222"/>
<stop offset="1"/>
</radialGradient>
</defs>
</svg>
